<?xml version="1.0" encoding="UTF-8" standalone="no"?>
<!-- Created with Inkscape (http://www.inkscape.org/) -->

<svg
   width="102.32844mm"
   height="115.02651mm"
   viewBox="0 0 102.32844 115.02651"
   version="1.1"
   id="svg1"
   xml:space="preserve"
   xmlns="http://www.w3.org/2000/svg"
   xmlns:svg="http://www.w3.org/2000/svg"><defs
     id="defs1" /><g
     id="layer2"
     transform="translate(-57.434084,-51.895631)"><path
       style="fill:none;stroke:#ff0a0a;stroke-width:0.265;stroke-dasharray:none;stroke-opacity:1"
       d="m 126.72589,114.56208 c 2.46249,-3.93999 2.95402,-6.92163 5.60601,-11.28861 1.56605,-2.57879 2.68287,-4.039249 4.12806,-3.936084 3.35956,0.239824 4.77162,4.488774 4.72139,6.293864 -0.0956,3.43375 -0.16714,6.47581 -1.80586,9.55268"
       id="path46" /><path
       style="fill:none;stroke:#ff0a0a;stroke-width:0.265;stroke-dasharray:none;stroke-opacity:1"
       d="m 123.01331,109.74079 c 4.59822,-4.45069 4.68314,-11.510749 9.71008,-15.078124 2.51002,-1.781243 5.50772,-1.815992 7.84089,-0.101563 1.94529,1.429415 3.36041,2.976531 3.86485,4.654668 1.17719,3.916179 1.66739,6.218889 0.88955,11.186929 -0.5771,3.686 -2.08409,5.77558 -2.07947,6.57874"
       id="path45" /><path
       style="fill:none;stroke:#ff0a0a;stroke-width:0.265;stroke-dasharray:none;stroke-opacity:1"
       d="m 119.51615,105.78682 c 2.17724,-2.4223 4.14153,-7.314339 6.34804,-10.98231 1.94727,-3.237036 3.88934,-5.842496 7.22256,-6.927758 3.96173,-1.289898 8.94435,0.218501 11.41976,2.784647 1.50649,1.561714 2.92341,3.038163 3.95166,5.458836 0.69794,1.643071 1.55809,3.912205 1.59644,7.163065 0.0274,2.3227 0.0886,4.98623 -0.4048,8.54278 -0.39628,2.85627 -1.46681,6.00024 -2.57083,9.9819"
       id="path20" /><path
       style="fill:none;stroke:#ff0a0a;stroke-width:0.264583;stroke-opacity:1"
       d="m 156.78254,132.89989 c 0,0 -1.02714,-5.11725 -0.84293,-7.86723 0.22966,-3.42841 1.83908,-6.74883 2.52876,-10.115 0.7557,-3.68836 1.05755,-7.47449 1.12389,-11.23889 0.0513,-2.90896 0.15934,-5.891548 -0.56195,-8.710137 -0.76869,-3.003817 -2.12397,-5.911436 -3.93361,-8.42917 -1.58521,-2.205478 -3.6517,-4.096196 -5.90042,-5.619446 -2.04716,-1.386722 -4.33583,-2.526924 -6.74333,-3.090695 -3.01067,-0.705017 -6.2243,-0.80264 -9.27209,-0.280972 -3.06869,0.525245 -6.07748,1.709789 -8.71014,3.371667 -1.96085,1.237794 -3.80931,3.318121 -5.19189,5.179714 -1.873,2.521917 -2.54319,5.31699 -3.8786,8.160379 -1.08745,2.315418 -2.82191,6.55392 -2.82191,6.55392"
       id="path47" /><path
       style="fill:none;stroke:#ff0a0a;stroke-width:0.264583;stroke-opacity:1"
       d="m 116.65484,102.34177 c 0,0 2.02808,-5.162938 3.09108,-7.324525 1.16843,-2.375991 2.17197,-4.913045 3.89746,-6.921341 1.27898,-1.4886 2.92129,-2.675055 4.63662,-3.628663 1.7094,-0.950312 3.5808,-1.695654 5.5102,-2.015926 2.03338,-0.337533 4.16078,-0.268842 6.18216,0.134395 1.93354,0.385715 3.82965,1.119251 5.5102,2.150319 1.66322,1.020432 3.09548,2.418029 4.36783,3.897455 1.25581,1.460198 2.29802,3.115089 3.15829,4.838218 0.85138,1.705322 1.52699,3.517005 1.94872,5.375799 0.40339,1.777969 0.52777,3.619869 0.53758,5.442999 0.011,2.04616 -0.20795,4.09551 -0.53758,6.11497 -0.38596,2.36458 -1.1155,4.6601 -1.67994,6.98854 -0.48892,2.01686 -1.14107,4.00008 -1.47834,6.04777 -0.33617,2.041 -0.53758,6.18217 -0.53758,6.18217 h 0.0672"
       id="path49" /><path
       style="fill:none;stroke:#ff0a0a;stroke-width:0.264583;stroke-opacity:1"
       d="m 131.37108,115.51248 c 0,0 1.25213,-2.12577 1.74715,-3.35988 0.43338,-1.08043 0.80135,-2.29562 1.07515,-3.42707 0.24677,-1.01974 0.45457,-2.062 0.87357,-3.02388 0.15648,-0.35922 0.3124,-0.74711 0.60477,-1.00797 0.20195,-0.18019 0.4741,-0.39059 0.73918,-0.33598 0.32614,0.0672 0.52188,0.44193 0.67197,0.73917 0.30889,0.61172 0.4141,1.33073 0.40319,2.01592 -0.011,0.68994 -0.31147,1.34445 -0.47039,2.01593 -0.26525,1.1208 -0.62227,2.22292 -0.80636,3.35987 -0.12577,0.77673 -0.2016,2.35191 -0.2016,2.35191"
       id="path50" /><path
       style="fill:none;stroke:#ff0a0a;stroke-width:0.264999;stroke-dasharray:none;stroke-opacity:1"
       d="m 87.423931,55.03474 -1.747137,2.351913 -2.755095,3.22548 c 0,0 -0.07548,1.030245 0.134395,1.478343 0.241849,0.516358 0.868622,0.752519 1.209553,1.209556 0.365558,0.490051 0.679277,1.033054 0.873567,1.612739 0.237582,0.708854 0.258753,1.473909 0.335989,2.217518 0.572496,5.511821 0.361991,11.086613 0.940763,16.597778 0.123083,1.172015 0.298377,2.340342 0.537581,3.49427 0.197397,0.95225 0.356238,1.928365 0.739171,2.822294 0.352468,0.82281 0.847017,1.589727 1.411148,2.284714 0.798801,0.98409 1.782452,1.808006 2.755098,2.620704 0.873248,0.729646 1.767258,1.451017 2.755096,2.015924 1.07999,0.617605 2.252063,1.069485 3.427073,1.478343 1.467647,0.510685 2.978477,0.904632 4.502227,1.209556 1.32948,0.266049 2.68514,0.380508 4.03185,0.537578 1.34156,0.15647 2.68613,0.28787 4.03185,0.40319 0.62648,0.0537 1.88153,0.13439 1.88153,0.13439"
       id="path51" /><path
       style="fill:none;stroke:#ff0a0a;stroke-width:0.264999;stroke-dasharray:none;stroke-opacity:1"
       d="m 76.336345,92.732532 c 0,0 0.869176,2.267535 2.755095,4.569427 1.776709,2.168593 2.710824,2.711401 4.972616,4.367841 1.940027,1.42079 4.156585,2.45321 6.383761,3.35987 2.185824,0.88983 4.504911,1.41431 6.786946,2.01592 1.733816,0.45708 3.510017,0.74336 5.241407,1.20956 2.12766,0.5729 4.23703,1.22022 6.31656,1.94873 2.02167,0.70824 5.98058,2.35191 5.98058,2.35191"
       id="path52" /><path
       style="fill:none;stroke:#ff0a0a;stroke-width:0.264999;stroke-dasharray:none;stroke-opacity:1"
       d="m 71.229336,95.017245 c 0,0 0.780536,5.455145 2.015923,7.862105 0.987412,1.92382 2.57171,3.51196 4.166246,4.97262 1.47083,1.34734 3.089374,2.60205 4.905415,3.42707 2.542311,1.15496 5.366264,1.6234 8.130897,2.01592 2.840789,0.40334 5.734104,0.2261 8.601278,0.33599 2.979005,0.11418 5.962765,0.13632 8.937265,0.33599 2.08816,0.14017 6.24937,0.60478 6.24937,0.60478"
       id="path53" /><path
       style="fill:none;stroke:#ff0a0a;stroke-width:0.264999;stroke-dasharray:none;stroke-opacity:1"
       d="m 66.458313,98.511515 c 0,0 0.0014,4.309335 0.806371,6.249365 0.813864,1.96153 2.47023,3.46723 3.897453,5.03981 1.757133,1.93609 3.483043,4.00881 5.711788,5.3758 2.313187,1.41878 5.009936,2.17353 7.660512,2.7551 2.525546,0.55414 5.14377,0.57873 7.727712,0.67197 3.067014,0.11068 6.13712,-0.15646 9.206051,-0.13439 3.0923,0.0222 6.19283,0.54041 9.27326,0.26879 1.75477,-0.15473 5.1742,-1.07516 5.1742,-1.07516"
       id="path54" /><path
       style="fill:none;stroke:#ff0a0a;stroke-width:0.264999;stroke-dasharray:none;stroke-opacity:1"
       d="m 70.28857,77.27711 0.26879,1.679937 c 0,0 -0.49782,2.68066 -0.940763,3.964652 -0.50661,1.468548 -1.267326,2.837384 -1.948728,4.233442 -1.006279,2.061667 -2.252166,4.00736 -3.158283,6.11497 -0.618342,1.438251 -1.196583,2.908881 -1.545543,4.435033 -0.306559,1.340714 -0.583062,2.728356 -0.470381,4.099046 0.200405,2.4378 1.014954,4.8239 2.015924,7.05574 0.77051,1.71799 1.842009,3.3053 3.023888,4.77102 1.441616,1.78783 3.078609,3.44632 4.905415,4.83822 1.460759,1.113 3.075332,2.04996 4.771022,2.7551 2.057023,0.85539 4.265145,1.31672 6.45096,1.74713 1.771855,0.34889 3.571991,0.58552 5.375798,0.67198 2.350174,0.11265 4.709739,-0.0219 7.055737,-0.2016 1.8006,-0.13794 3.574331,-0.54579 5.375794,-0.67197 2.88278,-0.20192 5.77987,-0.0501 8.66848,-0.1344 1.56871,-0.0458 3.13755,-0.10281 4.70382,-0.20159 1.61512,-0.10187 3.24016,-0.14785 4.83822,-0.40319 1.43243,-0.22888 4.23345,-1.00796 4.23345,-1.00796"
       id="path55" /><path
       style="fill:none;stroke:#ff0a0a;stroke-width:0.264999;stroke-dasharray:none;stroke-opacity:1"
       d="m 70.28857,73.245259 c -0.26879,-0.0672 -1.845641,-1.184667 -2.889491,-1.209553 -0.524202,-0.0125 -1.150609,0.128271 -1.478346,0.537578 -0.437606,0.546521 -0.339374,1.386559 -0.26879,2.083123 0.08355,0.824547 0.464861,1.596777 0.80637,2.351913 0.223243,0.49363 0.368475,1.092157 0.806371,1.411147 0.351531,0.256077 0.849686,0.351035 1.276752,0.26879 0.39652,-0.07636 0.695681,-0.415966 1.007962,-0.671975 0.244974,-0.20083 0.671976,-0.671976 0.671976,-0.671976 h -0.0672"
       id="path56" /><path
       style="fill:none;stroke:#ff0a0a;stroke-width:0.264999;stroke-dasharray:none;stroke-opacity:1"
       d="m 57.453849,70.691755 c 0,0 2.412301,-0.363922 3.628666,-0.403185 1.456737,-0.04702 2.918026,-0.149472 4.367836,2e-6 1.263751,0.130292 2.676989,0.249055 3.695864,1.00796 0.578475,0.430875 1.00796,1.747136 1.00796,1.747136"
       id="path58" /><path
       style="fill:none;stroke:#ff0a0a;stroke-width:0.264999;stroke-dasharray:none;stroke-opacity:1"
       d="m 57.521048,70.490164 4.838219,-3.091085 4.502232,-3.023888 -0.134395,-3.158281 1.411147,0.80637 -0.403185,-2.822294 1.343951,0.940763 -0.403186,-2.889491 1.478344,1.679938 -0.335987,-2.95669 1.747134,2.083123 v -3.22548 l 1.209556,1.747134 0.134395,-3.695862 1.545542,2.95669 0.671976,-3.292676 1.881529,2.956689 1.007962,-3.225479 1.679937,3.964651 1.007962,-3.49427 1.545542,3.964652 1.209554,-4.367837 0.873569,3.964651 2.95669,-2.35191 0.0672,1.075158"
       id="path59" /><path
       style="fill:none;stroke:#ff0a0a;stroke-width:0.264999;stroke-dasharray:none;stroke-opacity:1"
       d="m 96.025207,123.44178 -0.0672,43.14079 4.972613,0.20159 v -43.94716 0 0"
       id="path61" /><ellipse
       style="fill:none;stroke:#ff0a0a;stroke-width:0.264999;stroke-dasharray:none;stroke-opacity:1"
       id="path63"
       cx="64.596054"
       cy="79.247864"
       rx="2.3855107"
       ry="1.6463385"
       transform="rotate(-9.6)" /></g></svg>
